<?xml version="1.0" encoding="UTF-8" standalone="no"?>
<!-- Created with Inkscape (http://www.inkscape.org/) -->

<svg
   width="247.03963mm"
   height="59.132133mm"
   viewBox="0 0 247.03963 59.132133"
   version="1.1"
   id="svg5"
   inkscape:version="1.1.2 (b8e25be833, 2022-02-05)"
   sodipodi:docname="drawing.svg"
   xmlns:inkscape="http://www.inkscape.org/namespaces/inkscape"
   xmlns:sodipodi="http://sodipodi.sourceforge.net/DTD/sodipodi-0.dtd"
   xmlns="http://www.w3.org/2000/svg"
   xmlns:svg="http://www.w3.org/2000/svg">
  <sodipodi:namedview
     id="namedview7"
     pagecolor="#505050"
     bordercolor="#eeeeee"
     borderopacity="1"
     inkscape:pageshadow="0"
     inkscape:pageopacity="0"
     inkscape:pagecheckerboard="0"
     inkscape:document-units="mm"
     showgrid="false"
     inkscape:zoom="0.77771465"
     inkscape:cx="82.292394"
     inkscape:cy="362.60086"
     inkscape:window-width="2560"
     inkscape:window-height="1417"
     inkscape:window-x="-8"
     inkscape:window-y="-8"
     inkscape:window-maximized="1"
     inkscape:current-layer="layer1" />
  <defs
     id="defs2" />
  <g
     inkscape:label="Layer 1"
     inkscape:groupmode="layer"
     id="layer1"
     transform="translate(4.1577563,-52.305237)">
    <path
       style="fill:#000000;stroke-width:0.264583"
       d="m 2.2017638,111.3135 c -2.55969798,-0.45988 -4.280249,-1.60834 -5.482233,-3.65937 -1.001837,-1.7095 -1.168765,-5.05838 -0.381063,-7.64474 1.354121,-4.446146 5.507553,-8.797466 11.022671,-11.547826 4.2412602,-2.115095 8.3137592,-3.145814 14.1855912,-3.590274 4.700582,-0.355804 7.520702,-0.06995 14.721618,1.492242 0.443201,0.09615 1.260319,-0.367368 3.175,-1.801048 3.080403,-2.306552 14.474909,-11.533414 19.114667,-15.478373 14.454209,-12.289709 21.705369,-16.7997 26.976943,-16.778802 3.253312,0.0129 5.576382,2.319687 5.562756,5.523775 -0.0067,1.569863 -0.264644,1.765171 -1.848575,1.399557 -4.810871,-1.110483 -9.352409,0.771533 -17.696249,7.333335 -13.667197,10.748221 -27.726621,22.455908 -27.361668,22.784848 0.412033,0.37138 7.405581,3.13181 10.927209,4.31308 5.652715,1.89613 8.363961,2.37006 13.361459,2.33561 3.738533,-0.0258 8.658294,-0.54008 9.065974,-0.94776 0.0798,-0.0798 -0.15971,-0.42757 -0.532244,-0.77282 -2.30918,-2.14008 -2.161473,-6.0216 0.349803,-9.192348 1.875701,-2.368264 5.547318,-4.636235 9.196327,-5.680604 2.068754,-0.592089 2.841514,-0.688051 4.7625,-0.591412 1.446316,0.07276 2.60893,0.281379 3.148473,0.564957 0.899089,0.472548 1.658125,1.633775 1.658125,2.536721 0,0.520515 0.03263,0.51751 1.216674,-0.112051 2.143495,-1.139705 4.342538,-1.18732 5.412668,-0.117191 0.78841,0.78841 0.63866,1.15077 -0.98089,2.373542 -2.337022,1.764469 -5.28788,4.680226 -5.7746,5.705916 -0.34776,0.73285 -0.374652,1.01387 -0.125722,1.31381 1.037138,1.24967 4.994752,-0.80637 12.117672,-6.295326 3.52884,-2.719342 5.27354,-3.641868 6.88761,-3.641868 1.25314,0 2.41325,0.550897 2.41325,1.145969 0,0.177215 -0.90759,1.0932 -2.01687,2.035516 -2.62927,2.233523 -4.0014,3.809189 -4.31909,4.959759 -0.30738,1.11325 0.0261,1.91292 0.79782,1.91292 1.23269,0 5.18825,-2.63711 10.38437,-6.923108 3.33256,-2.748852 5.79322,-3.584014 7.41972,-2.518294 1.3893,0.910304 1.22623,1.435195 -1.12131,3.609232 -2.67544,2.477717 -3.47172,3.55539 -3.47172,4.69862 0,1.76992 1.69333,1.69274 4.9661,-0.22634 1.95854,-1.14845 7.48758,-6.687129 10.34154,-10.359574 2.21076,-2.844784 2.21076,-2.844784 1.51606,-3.391228 -2.33731,-1.838534 -1.85444,-5.349208 0.78444,-5.703155 0.89574,-0.120144 1.20852,-0.02778 1.91281,0.564841 1.26782,1.066797 1.58036,2.590474 0.96066,4.683339 -0.0967,0.326673 0.29979,0.671012 1.52339,1.322917 0.90978,0.484714 2.28397,1.49606 3.05374,2.247439 2.44314,2.384743 2.06656,3.412143 -3.23295,8.820314 -1.49727,1.527967 -2.91293,3.159167 -3.14592,3.624877 -0.58686,1.17307 -0.53517,2.27785 0.13488,2.88255 1.13076,1.02049 6.16553,0.34252 9.3001,-1.25233 0.99505,-0.50628 0.99505,-0.50628 0.41381,-1.29245 -0.39685,-0.53677 -0.61765,-1.28958 -0.69603,-2.37307 -0.0966,-1.33626 -2.1e-4,-1.821082 0.61064,-3.069609 2.0103,-4.108912 7.78402,-7.363176 12.2466,-6.902598 2.59705,0.268039 5.87935,2.273348 5.87558,3.589666 -8e-4,0.235037 -0.29551,1.141714 -0.65518,2.014839 -1.34704,3.270002 -0.66168,5.973672 1.8405,7.260502 1.2214,0.62814 1.56509,0.67563 4.7625,0.65808 3.72665,-0.0204 5.42278,-0.27655 16.54298,-2.49792 18.31423,-3.658442 22.72452,-4.300152 29.76563,-4.330984 6.77661,-0.02967 9.40379,0.437918 13.62604,2.425164 1.73284,0.81559 4.06829,2.94486 4.84891,4.42085 0.89189,1.68635 0.80616,4.79302 -0.19187,6.954236 -0.75684,1.63887 -2.31627,3.35282 -2.87973,3.16501 -0.15928,-0.0531 -0.42383,-0.68437 -0.58793,-1.40282 -0.89275,-3.908826 -3.37343,-6.015746 -9.25917,-7.864146 -3.53592,-1.11044 -5.88862,-1.37718 -11.90625,-1.34988 -5.94564,0.027 -7.64818,0.21503 -16.40417,1.81199 -11.70329,2.13451 -17.09718,3.0774 -19.71146,3.44571 -5.7431,0.8091 -9.40056,0.35689 -12.1925,-1.5075 -2.68116,-1.79041 -3.68466,-3.93727 -3.16199,-6.76466 0.14951,-0.80879 0.23613,-1.50624 0.19247,-1.54989 -0.0437,-0.04365 -1.38279,0.78845 -2.97586,1.84912 -4.2526,2.83139 -7.42593,4.53975 -11.19075,6.02451 -4.15912,1.64028 -7.01411,2.34525 -9.50747,2.34765 -2.41772,0.002 -3.50865,-0.447 -4.53916,-1.86958 -0.69414,-0.95822 -0.8098,-1.3495 -0.80767,-2.73233 0.004,-2.39325 0.87785,-3.69206 5.67917,-8.43796 4.31786,-4.268014 4.76998,-4.965387 3.99043,-6.155128 -0.44311,-0.676265 -1.9038,-1.709907 -2.39604,-1.695522 -0.14552,0.0043 -0.94738,0.93871 -1.7819,2.076572 -6.72652,9.171488 -13.93837,15.068798 -18.72331,15.310498 -2.00957,0.10151 -2.75959,-0.21151 -3.65559,-1.52564 -0.55507,-0.8141 -0.61499,-1.14591 -0.51129,-2.8311 0.0824,-1.33984 0.0309,-1.85882 -0.17293,-1.74087 -0.15972,0.0924 -1.2429,0.8496 -2.40707,1.6826 -3.31193,2.36981 -7.88728,4.48073 -9.71185,4.48073 -1.03443,0 -2.24977,-0.66377 -2.46669,-1.3472 -0.22781,-0.71777 -0.22681,-2.08294 0.002,-3.12597 0.0989,-0.45017 0.112,-0.8185 0.0292,-0.8185 -0.0828,0 -1.01503,0.55581 -2.07154,1.23513 -1.05652,0.67932 -3.171092,1.83525 -4.69906,2.56874 -2.208499,1.06018 -3.121944,1.35605 -4.454959,1.44301 -2.691853,0.17559 -3.48265,-0.56876 -3.48265,-3.278 v -1.4458 l -1.444334,1.17643 c -2.637959,2.14864 -6.826086,4.79831 -10.571805,6.68837 -2.96625,1.49675 -6.90934,2.651376 -11.193238,3.277636 -3.930195,0.57455 -3.930195,0.57455 -7.345905,-0.003 -3.778726,-0.63842 -8.274156,-2.008936 -13.497843,-4.115096 -1.891771,-0.76275 -4.582957,-1.78128 -5.980415,-2.26339 l -2.54083,-0.87657 -3.676878,2.73391 c -2.022282,1.50364 -4.6291,3.442756 -5.792928,4.309136 -4.017309,2.99059 -11.28331,6.95316 -16.011282,8.73187 -3.4146038,1.28462 -7.7376072,1.9405 -10.0507932,1.52492 z m 4.955588,-7.57351 c 2.7547568,-0.56901 4.7222172,-1.34463 9.4269642,-3.71633 4.622001,-2.329986 7.892418,-4.198786 11.801332,-6.743596 l 2.768261,-1.80221 -0.929894,-0.38853 c -2.057376,-0.85963 -5.518155,-1.28785 -9.236834,-1.14294 -4.029406,0.15702 -6.210837,0.56722 -10.377644,1.95138 -7.2681972,2.41442 -11.8981142,7.8414 -9.3118782,10.914966 1.138179,1.35265 2.6455,1.59117 5.859693,0.92726 z M 84.35489,90.374254 c 2.592956,-1.33426 7.368799,-4.615223 8.433567,-5.793794 1.122458,-1.242425 1.144929,-1.82659 0.08972,-2.332339 -1.06643,-0.511127 -3.234198,-0.0075 -6.188509,1.437878 -2.779379,1.359749 -5.095566,3.388947 -5.905585,5.173845 -0.637005,1.40366 -0.647044,1.64963 -0.09005,2.20662 0.57005,0.57005 1.578295,0.37941 3.660857,-0.69221 z m 74.30655,0.23786 c 3.52953,-1.78126 8.51034,-5.464858 9.45406,-6.991816 0.58012,-0.93867 0.58326,-0.978943 0.10355,-1.329719 -1.33705,-0.977675 -6.60809,1.175861 -9.25571,3.781517 -1.46415,1.44094 -3.03166,3.834448 -3.03617,4.636078 -0.005,0.86547 0.89141,0.83398 2.73427,-0.0961 z"
       id="path93" />
  </g>
</svg>
